<svg width="33" height="36" viewBox="0 0 33 36" fill="none" xmlns="http://www.w3.org/2000/svg">
<path d="M0.5 0.75V33.25H20.5V30.75H3V3.25H15.5V10.75H23V13.25H25.5V8.99219L17.2578 0.75H0.5ZM18 5.00781L21.2422 8.25H18V5.00781ZM5.5 13.25V15.75H20.5V13.25H5.5ZM26.75 15.75V18.25C25.6823 18.4323 24.7839 18.9271 24.0547 19.7344C23.3516 20.5417 23 21.5052 23 22.625C23 23.875 23.4167 24.9167 24.25 25.75C25.0833 26.5833 26.125 27 27.375 27H28.625C29.1198 27 29.5495 27.1953 29.9141 27.5859C30.3047 27.9505 30.5 28.3802 30.5 28.875C30.5 29.3698 30.3047 29.8125 29.9141 30.2031C29.5495 30.5677 29.1198 30.75 28.625 30.75H24.25V33.25H26.75V35.75H29.25V33.25C30.3177 33.0677 31.2031 32.5729 31.9062 31.7656C32.6354 30.9583 33 29.9948 33 28.875C33 27.625 32.5833 26.5833 31.75 25.75C30.9167 24.9167 29.875 24.5 28.625 24.5H27.375C26.8802 24.5 26.4375 24.3177 26.0469 23.9531C25.6823 23.5625 25.5 23.1198 25.5 22.625C25.5 22.1302 25.6823 21.7005 26.0469 21.3359C26.4375 20.9453 26.8802 20.75 27.375 20.75H31.75V18.25H29.25V15.75H26.75ZM5.5 19.5V22H14.25V19.5H5.5ZM16.75 19.5V22H20.5V19.5H16.75ZM5.5 24.5V27H14.25V24.5H5.5ZM16.75 24.5V27H20.5V24.5H16.75Z" fill="#6C63FF"/>
</svg>
