<svg width="26" height="28" viewBox="0 0 26 28" fill="none" xmlns="http://www.w3.org/2000/svg">
<path d="M13 0.25C11.4115 0.25 9.9401 0.640625 8.58594 1.42188C7.25781 2.20312 6.20312 3.27083 5.42188 4.625C4.64062 5.95312 4.25 7.41146 4.25 9C4.25 10.4844 4.58854 11.8646 5.26562 13.1406C5.96875 14.4167 6.91927 15.4583 8.11719 16.2656C6.63281 16.9167 5.30469 17.8151 4.13281 18.9609C2.98698 20.1068 2.10156 21.4219 1.47656 22.9062C0.825521 24.4427 0.5 26.0573 0.5 27.75H3C3 25.9271 3.44271 24.2604 4.32812 22.75C5.23958 21.2135 6.45052 20.0026 7.96094 19.1172C9.4974 18.2057 11.1771 17.75 13 17.75C14.8229 17.75 16.4896 18.2057 18 19.1172C19.5365 20.0026 20.7474 21.2135 21.6328 22.75C22.5443 24.2604 23 25.9271 23 27.75H25.5C25.5 26.0573 25.1745 24.4427 24.5234 22.9062C23.8984 21.4219 23 20.1068 21.8281 18.9609C20.6823 17.8151 19.3672 16.9167 17.8828 16.2656C19.0807 15.4583 20.0182 14.4167 20.6953 13.1406C21.3984 11.8646 21.75 10.4844 21.75 9C21.75 7.41146 21.3594 5.95312 20.5781 4.625C19.7969 3.27083 18.7292 2.20312 17.375 1.42188C16.0469 0.640625 14.5885 0.25 13 0.25ZM13 2.75C14.1458 2.75 15.1875 3.03646 16.125 3.60938C17.0885 4.15625 17.8438 4.91146 18.3906 5.875C18.9635 6.8125 19.25 7.85417 19.25 9C19.25 10.1458 18.9635 11.2005 18.3906 12.1641C17.8438 13.1016 17.0885 13.8568 16.125 14.4297C15.1875 14.9766 14.1458 15.25 13 15.25C11.8542 15.25 10.7995 14.9766 9.83594 14.4297C8.89844 13.8568 8.14323 13.1016 7.57031 12.1641C7.02344 11.2005 6.75 10.1458 6.75 9C6.75 7.85417 7.02344 6.8125 7.57031 5.875C8.14323 4.91146 8.89844 4.15625 9.83594 3.60938C10.7995 3.03646 11.8542 2.75 13 2.75Z" fill="#F4BE5E"/>
</svg>
