<svg width="28" height="35" viewBox="0 0 28 35" fill="none" xmlns="http://www.w3.org/2000/svg">
<path d="M14 0.5C13.2448 0.5 12.5807 0.747396 12.0078 1.24219C11.4609 1.6849 11.0443 2.27083 10.7578 3H0.25V34.25H27.75V3H17.2422C16.9557 2.27083 16.5391 1.6849 15.9922 1.24219C15.4193 0.747396 14.7552 0.5 14 0.5ZM14 3C14.3385 3 14.625 3.13021 14.8594 3.39062C15.1198 3.625 15.25 3.91146 15.25 4.25V5.5H19V8H9V5.5H12.75V4.25C12.75 3.91146 12.8672 3.625 13.1016 3.39062C13.362 3.13021 13.6615 3 14 3ZM2.75 5.5H6.5V10.5H21.5V5.5H25.25V31.75H2.75V5.5ZM5.25 14.25V16.75H7.75V14.25H5.25ZM10.25 14.25V16.75H22.75V14.25H10.25ZM5.25 19.25V21.75H7.75V19.25H5.25ZM10.25 19.25V21.75H22.75V19.25H10.25ZM5.25 24.25V26.75H7.75V24.25H5.25ZM10.25 24.25V26.75H22.75V24.25H10.25Z" fill="#0475E6"/>
</svg>
