<svg width="30" height="30" viewBox="0 0 30 30" fill="none" xmlns="http://www.w3.org/2000/svg">
<path d="M30 0.078125L27.9688 1.64062L22.1875 6.17188L14.7266 4.92188L7.1875 9.92188L1.48438 8.78906L0 8.47656V30H30V0.078125ZM27.5 5.19531V11.9141L22.2266 16.0938L14.8047 13.6328L14.2969 13.9453L7.34375 18.5938L2.5 16.6406V11.5234L7.26562 12.4609L7.77344 12.5781L15.2734 7.57812L22.3047 8.75L22.8516 8.82812L23.2812 8.47656L27.5 5.19531ZM27.5 15.1172V27.5H2.5V19.375L7.65625 21.4062L15.2344 16.3672L22.1094 18.6719L22.7344 18.9062L23.2812 18.4766L27.5 15.1172Z" fill="#57B894"/>
</svg>
