<svg width="36" height="28" viewBox="0 0 36 28" fill="none" xmlns="http://www.w3.org/2000/svg">
<path d="M8 0.25C6.95833 0.25 6.02083 0.523438 5.1875 1.07031C4.51042 1.53906 3.98958 2.125 3.625 2.82812C3.41667 3.21875 3.26042 3.67448 3.15625 4.19531C2.375 4.42969 1.73698 4.8724 1.24219 5.52344C0.747396 6.17448 0.5 6.91667 0.5 7.75V24C0.5 25.0156 0.864583 25.901 1.59375 26.6562C2.34896 27.3854 3.23438 27.75 4.25 27.75H13C13.8333 27.75 14.5885 27.5286 15.2656 27.0859C15.9688 26.6172 16.4896 26.0052 16.8281 25.25H19.1719C19.5104 26.0052 20.0182 26.6172 20.6953 27.0859C21.3984 27.5286 22.1667 27.75 23 27.75H31.75C32.7656 27.75 33.638 27.3854 34.3672 26.6562C35.1224 25.901 35.5 25.0156 35.5 24V7.75C35.5 6.91667 35.2526 6.17448 34.7578 5.52344C34.263 4.8724 33.625 4.42969 32.8438 4.19531C32.7396 3.67448 32.5833 3.21875 32.375 2.82812C32.0104 2.125 31.4896 1.53906 30.8125 1.07031C29.9792 0.523438 29.0417 0.25 28 0.25H8ZM8 2.75H28C28.651 2.75 29.1458 2.86719 29.4844 3.10156C29.7188 3.25781 29.9401 3.53125 30.1484 3.92188L30.1875 4H5.8125L5.85156 3.92188C6.0599 3.53125 6.28125 3.25781 6.51562 3.10156C6.85417 2.86719 7.34896 2.75 8 2.75ZM4.25 6.5H31.75C32.1146 6.5 32.4141 6.61719 32.6484 6.85156C32.8828 7.08594 33 7.38542 33 7.75V24C33 24.3646 32.8828 24.6641 32.6484 24.8984C32.4141 25.1328 32.1146 25.25 31.75 25.25H23C22.6615 25.25 22.349 25.1589 22.0625 24.9766C21.776 24.7682 21.5677 24.5078 21.4375 24.1953L20.1484 20.7578V20.7188L20.1094 20.6797C19.9271 20.237 19.6406 19.8854 19.25 19.625C18.8594 19.3646 18.4297 19.2344 17.9609 19.2344C17.4922 19.2344 17.0495 19.3646 16.6328 19.625C16.2422 19.8854 15.9557 20.237 15.7734 20.6797L15.7344 20.7188V20.7969L14.5625 24.1953C14.4323 24.5078 14.224 24.7682 13.9375 24.9766C13.651 25.1589 13.3385 25.25 13 25.25H4.25C3.88542 25.25 3.58594 25.1328 3.35156 24.8984C3.11719 24.6641 3 24.3646 3 24V7.75C3 7.38542 3.11719 7.08594 3.35156 6.85156C3.58594 6.61719 3.88542 6.5 4.25 6.5ZM10.5 10.25C9.58854 10.25 8.75521 10.4844 8 10.9531C7.24479 11.3958 6.63281 11.9948 6.16406 12.75C5.72135 13.5052 5.5 14.3385 5.5 15.25C5.5 16.1615 5.72135 16.9948 6.16406 17.75C6.63281 18.5052 7.24479 19.1172 8 19.5859C8.75521 20.0286 9.58854 20.25 10.5 20.25C11.4115 20.25 12.2448 20.0286 13 19.5859C13.7552 19.1172 14.3542 18.5052 14.7969 17.75C15.2656 16.9948 15.5 16.1615 15.5 15.25C15.5 14.3385 15.2656 13.5052 14.7969 12.75C14.3542 11.9948 13.7552 11.3958 13 10.9531C12.2448 10.4844 11.4115 10.25 10.5 10.25ZM25.5 10.25C24.5885 10.25 23.7552 10.4844 23 10.9531C22.2448 11.3958 21.6328 11.9948 21.1641 12.75C20.7214 13.5052 20.5 14.3385 20.5 15.25C20.5 16.1615 20.7214 16.9948 21.1641 17.75C21.6328 18.5052 22.2448 19.1172 23 19.5859C23.7552 20.0286 24.5885 20.25 25.5 20.25C26.4115 20.25 27.2448 20.0286 28 19.5859C28.7552 19.1172 29.3542 18.5052 29.7969 17.75C30.2656 16.9948 30.5 16.1615 30.5 15.25C30.5 14.3385 30.2656 13.5052 29.7969 12.75C29.3542 11.9948 28.7552 11.3958 28 10.9531C27.2448 10.4844 26.4115 10.25 25.5 10.25ZM10.5 12.75C11.2031 12.75 11.7891 12.9974 12.2578 13.4922C12.7526 13.9609 13 14.5469 13 15.25C13 15.9531 12.7526 16.5521 12.2578 17.0469C11.7891 17.5156 11.2031 17.75 10.5 17.75C9.79688 17.75 9.19792 17.5156 8.70312 17.0469C8.23438 16.5521 8 15.9531 8 15.25C8 14.5469 8.23438 13.9609 8.70312 13.4922C9.19792 12.9974 9.79688 12.75 10.5 12.75ZM25.5 12.75C26.2031 12.75 26.7891 12.9974 27.2578 13.4922C27.7526 13.9609 28 14.5469 28 15.25C28 15.9531 27.7526 16.5521 27.2578 17.0469C26.7891 17.5156 26.2031 17.75 25.5 17.75C24.7969 17.75 24.1979 17.5156 23.7031 17.0469C23.2344 16.5521 23 15.9531 23 15.25C23 14.5469 23.2344 13.9609 23.7031 13.4922C24.1979 12.9974 24.7969 12.75 25.5 12.75ZM17.9609 22.0469L18.2344 22.75H17.7266L17.9609 22.0469Z" fill="#9698D6"/>
</svg>
